<?xml version="1.0" standalone="no"?>
<!DOCTYPE svg PUBLIC "-//W3C//DTD SVG 20010904//EN"
 "http://www.w3.org/TR/2001/REC-SVG-20010904/DTD/svg10.dtd">
<svg version="1.0" xmlns="http://www.w3.org/2000/svg"
 width="626.000000pt" height="626.000000pt" viewBox="0 0 626.000000 626.000000"
 preserveAspectRatio="xMidYMid meet">
<metadata>
Created by potrace 1.15, written by Peter Selinger 2001-2017
</metadata>
<g transform="translate(0.000000,626.000000) scale(0.100000,-0.100000)"
fill="#000000" stroke="none">
<path d="M681 5745 c-124 -27 -188 -54 -296 -124 -173 -111 -302 -292 -357
-501 l-23 -85 0 -1470 0 -1470 28 -88 c93 -296 303 -503 600 -590 72 -21 73
-21 1863 -24 l1792 -3 93 -108 c52 -59 114 -132 139 -162 25 -30 101 -121 170
-201 69 -81 162 -191 207 -245 123 -149 143 -166 201 -172 46 -4 53 -2 88 31
l39 35 3 410 3 409 162 6 c116 4 183 11 234 25 326 89 571 362 623 694 8 53
10 468 8 1503 l-3 1430 -22 80 c-83 295 -298 516 -593 607 l-75 23 -2410 2
c-2027 1 -2420 -1 -2474 -12z m4844 -250 c220 -47 395 -210 461 -430 17 -56
19 -143 21 -1444 3 -1218 2 -1395 -12 -1475 -39 -224 -186 -396 -403 -471 -72
-25 -92 -27 -306 -32 l-229 -6 -36 -33 -36 -32 -3 -292 c-2 -160 -7 -290 -12
-288 -9 3 -163 181 -290 333 -158 191 -251 293 -278 304 -19 8 -545 12 -1842
13 l-1815 3 -74 27 c-211 78 -340 217 -398 428 -17 61 -18 151 -18 1480 0
1342 1 1418 18 1480 62 219 239 387 457 434 100 22 4693 23 4795 1z"/>
<path d="M2085 3826 c-68 -17 -103 -37 -146 -83 -51 -55 -66 -83 -78 -146 -29
-158 68 -309 223 -348 180 -45 360 101 358 291 -1 190 -178 332 -357 286z"/>
<path d="M3067 3830 c-83 -21 -164 -84 -201 -158 -39 -77 -39 -185 0 -267 54
-115 206 -186 332 -155 225 54 302 341 135 502 -68 66 -180 99 -266 78z"/>
<path d="M4100 3826 c-69 -20 -104 -41 -148 -91 -55 -63 -76 -128 -70 -219 6
-83 29 -135 85 -187 113 -107 254 -117 377 -28 149 107 163 325 29 454 -66 64
-188 96 -273 71z"/>
</g>
</svg>
