<?xml version="1.0" standalone="no"?>
<!DOCTYPE svg PUBLIC "-//W3C//DTD SVG 20010904//EN"
 "http://www.w3.org/TR/2001/REC-SVG-20010904/DTD/svg10.dtd">
<svg version="1.0" xmlns="http://www.w3.org/2000/svg"
 width="531.000000pt" height="600.000000pt" viewBox="0 0 531.000000 600.000000"
 preserveAspectRatio="xMidYMid meet">
<metadata>
Created by potrace 1.15, written by Peter Selinger 2001-2017
</metadata>
<g transform="translate(0.000000,600.000000) scale(0.100000,-0.100000)"
fill="#000000" stroke="none">
<path d="M1293 5789 c-272 -45 -471 -279 -554 -649 -48 -211 -26 -576 46 -767
103 -273 360 -523 721 -701 66 -32 130 -63 144 -69 24 -10 24 -11 -20 -23
-325 -94 -680 -256 -894 -409 -169 -120 -317 -285 -378 -421 -47 -104 -62
-177 -62 -295 1 -308 164 -529 474 -641 72 -26 211 -54 266 -54 l31 0 7 -85
c19 -230 75 -394 188 -547 116 -158 289 -264 487 -298 l94 -16 18 -57 c66
-210 257 -404 480 -490 175 -67 205 -72 459 -72 220 1 243 2 350 28 637 149
1102 491 1436 1057 101 171 204 399 204 451 0 24 1 24 112 25 130 0 164 11
233 75 79 73 127 189 156 379 39 260 15 568 -68 860 -33 118 -125 325 -188
425 -106 169 -153 232 -249 333 -188 198 -408 304 -565 271 -76 -15 -106 -32
-178 -101 l-61 -59 -64 51 c-201 162 -447 246 -808 275 -96 8 -225 15 -286 15
-276 0 -383 43 -545 218 -163 176 -246 347 -364 749 -48 166 -107 287 -180
370 -109 124 -295 197 -442 172z m210 -187 c121 -60 187 -163 252 -397 109
-392 140 -474 233 -629 141 -234 311 -389 502 -456 61 -22 87 -24 390 -30 444
-10 589 -34 785 -125 152 -71 226 -137 372 -330 280 -371 464 -764 544 -1160
28 -138 37 -444 19 -596 -10 -84 -20 -115 -56 -191 -88 -180 -232 -375 -404
-548 -259 -260 -540 -441 -881 -569 -492 -184 -875 -165 -1118 56 -60 54 -151
170 -151 191 0 6 17 14 38 17 20 4 60 14 87 23 44 15 50 21 53 48 2 17 -3 35
-10 41 -7 5 -51 15 -98 22 -386 56 -605 192 -740 461 -39 76 -96 242 -105 303
l-7 43 54 11 c80 17 107 30 120 58 22 49 -7 62 -206 95 -323 54 -440 95 -541
191 -68 64 -98 115 -125 210 -78 282 91 553 505 814 106 67 400 215 535 269
52 22 178 69 280 107 180 66 185 68 185 96 0 24 -5 29 -29 31 -16 2 -49 -2
-72 -8 -42 -12 -44 -12 -166 52 -260 136 -449 270 -593 419 -147 153 -208 261
-247 440 -19 89 -22 134 -23 309 0 240 15 323 90 475 123 252 331 354 528 257z
m2879 -1751 c237 -120 493 -468 612 -831 118 -363 127 -812 19 -1013 -24 -43
-36 -54 -75 -69 -26 -9 -69 -20 -96 -24 l-49 -6 -6 173 c-13 397 -121 771
-340 1174 -64 118 -198 327 -280 438 l-50 68 59 60 c54 55 62 59 104 59 30 0
64 -10 102 -29z"/>
<path d="M2800 3179 c-637 -160 -677 -171 -702 -199 -35 -38 -43 -72 -29 -120
12 -41 47 -73 93 -84 27 -6 44 -1 1008 331 364 125 400 142 400 184 0 28 -36
59 -67 58 -16 0 -332 -77 -703 -170z"/>
<path d="M3245 2484 c-253 -151 -494 -296 -536 -321 -42 -26 -84 -59 -93 -74
-34 -57 -12 -145 44 -174 34 -17 93 -20 121 -4 17 9 640 479 904 682 50 38 93
78 97 88 15 39 -16 80 -60 79 -9 0 -224 -124 -477 -276z"/>
<path d="M4026 2158 c-174 -179 -663 -705 -675 -726 -22 -42 -9 -111 28 -144
26 -23 40 -28 84 -28 34 0 59 6 73 18 27 22 620 833 628 859 9 28 -29 73 -61
73 -18 0 -42 -16 -77 -52z"/>
</g>
</svg>
